<svg xmlns="http://www.w3.org/2000/svg" viewBox="0 0 512 512" width="682.667" height="682.667" xmlns:v="https://vecta.io/nano"><defs><clipPath id="A"><path d="M0 0h512v512H0z"/></clipPath></defs><g clip-path="url(#A)"><g fill="#ff5f00"><path fill-opacity="0" d="M0 0h512v512H0z"/><path d="M256 0h0c141.29 0 256 114.71 256 256h0c0 141.29-114.71 256-256 256h0C114.71 512 0 397.29 0 256h0C0 114.71 114.71 0 256 0z"/></g><g fill="#009788"><path d="M94.893 173.501h32.728c2.83 0 5.82 2.191 6.673 4.89l14.63 46.312c.853 2.698.886 7.091.075 9.802l-19.529 65.296c-.811 2.711-2.112 2.707-2.904-.01L91.2 178.424c-.792-2.717.863-4.923 3.693-4.923zm99.157 4.916L147.582 334.85c-.806 2.713.837 4.915 3.667 4.915h26.324c2.83 0 5.815-2.192 6.661-4.893l28.734-91.738c.846-2.701 2.121-2.672 2.847.063l12.257 46.237c.726 2.736 1.978 2.757 2.795.047l16.535-54.836c.817-2.71.856-7.121.086-9.845l-13.096-46.328c-.77-2.723-3.693-4.937-6.523-4.939l-27.231-.027c-2.83-.003-5.782 2.198-6.588 4.911z"/></g><path d="M293.367 178.408l-8.12 26.756c-.822 2.708.809 4.907 3.639 4.907h69.847q19.881-.408 21.149 23.676 1.268 24.085-21.149 25.379h-85.345c-2.83 0-5.743 2.214-6.502 4.941l-19.683 70.758c-.759 2.727.923 4.94 3.754 4.94h31.756c2.83 0 5.738-2.215 6.489-4.944l8.824-32.067c.751-2.729 3.658-4.944 6.488-4.944h54.219c42.303.719 64.263-25.691 63.128-63.19s-21.241-61.318-63.128-61.082q-25.424.142-58.749-.013c-2.83-.013-5.795 2.175-6.617 4.883z" fill="#e8e8e8"/></g></svg>